<svg xmlns="http://www.w3.org/2000/svg" width="933.333" height="933.333" version="1.0" viewBox="0 0 700 700"><path d="M101.9 224.6c-.1.5-.2 19-.3 41.2l-.1 40.2 20.9-.2 21-.3v-24.4l.1-24.5-7.5-5.8c-4.1-3.3-8.4-6.7-9.5-7.6-1.9-1.6-20.3-16.2-23.2-18.5-.7-.5-1.3-.6-1.4-.1zM223 224.6c-.1.5-.2 40.3-.3 88.4l-.2 87.5-4.2-.2c-2.4-.1-4.3 0-4.3.3 0 .2 9.3 7.8 20.6 16.9 20.2 16.2 20.7 16.5 25.4 16.5h4.8v-88.5c0-70.3-.3-88.7-1.3-89.3-.7-.4-3.2-2.3-5.6-4.4-4.3-3.5-31.1-25.2-33.6-27.1-.7-.5-1.3-.6-1.3-.1zM458.5 268.4V304l5.8.1h32l4.4-.1-.1-18.5c-.1-15.8.1-18.5 1.4-18.6.8-.1 7.7-.1 15.4-.1h13.8l-.5-4c-.8-6.2-6.3-16.2-11.1-20.5-3.9-3.4-9.8-6.2-16.6-7.9-1.4-.4-11.9-.9-23.5-1.1l-21-.5v35.6zM305 238c-7.2 2.7-15.3 9.2-20.6 16.5l-4.3 6.1 23.1 13.9c14.5 8.8 23.3 13.5 23.5 12.8.3-.7 2.5-3.9 4.9-7 4.6-5.9 12.4-11.9 17.2-13.2 3.3-.9 3.2-3.1-.4-10.7-7.4-15.8-27.5-24.3-43.4-18.4z"/><path d="M346.1 238.6c6.2 6.9 7.1 8.1 9.4 12.1 5.6 10.2 7.8 18.8 7.8 31.8.1 12.2-1 18.5-6 33.5-3.6 11-18.7 43.8-22.3 48.5-.4.5-2 3.2-3.5 6-1.6 2.7-5.4 9-8.6 13.9-6.8 10.4-8 13.1-5.2 12.2 1-.3 3.8-.8 6.3-1 2.5-.3 6.8-.8 9.5-1.1 2.8-.3 5.9-.7 7-.9 1.1-.2 4.7-.7 8-1 3.3-.4 7.8-.9 10-1.2 2.2-.3 5.6-.7 7.5-.9 1.9-.3 6-.8 9-1.1 6.6-.7 6.6-.7 15.3-16.8 6.7-12.3 14.2-29.8 15.2-35.7.3-1.8.8-3.5 1-3.9 2-3.2 3.2-23.8 2-33.1-.8-6.2-4.5-17.1-7.8-22.9-4.6-8.2-10.9-13.7-25.8-22.4-7.3-4.3-15-8.8-16.9-10.1-1.9-1.2-6-3.7-9-5.5l-5.5-3.2 2.6 2.8zM532.3 242.8c2 2.8 3.7 5.5 3.7 6 0 .4.6 1.8 1.3 3.2 7.7 14.8 4.2 37.1-7.6 48.9-4.4 4.4-13.9 10.1-16.8 10.1-3.3 0-2.6 1.3 3.1 6.1 10.2 8.5 17.5 18 31.5 41.4 9.6 15.9 15.5 25.4 17.5 27.9 3.9 5 8.7 10.2 10.4 11.5 2.5 1.9.6 2.9-4.9 2.5-5.3-.4-5.2.8.3 4.8 2 1.4 5.1 3.8 6.7 5.1 1.7 1.4 9 7.3 16.4 13.1l13.4 10.6h5.9c3.2 0 5.8-.4 5.8-.8s-1.6-2.4-3.6-4.3c-6.5-6.2-14.1-17.2-23.9-34.3-13.8-24.3-21-34-32.7-43.7l-5.8-4.8 6.6-3.3c8.2-4.1 13.3-8.4 17.2-14.5 10.6-16.8 8.5-39.3-5.2-54.9-2.4-2.8-12.2-11.3-21.8-18.9-9.5-7.6-18.2-14.6-19.3-15.4-1-.9-.2.8 1.8 3.7zM458.5 357.1v43.4l-4.8-.1c-2.6 0-4.4.2-4 .6.4.3 3.1 2.4 5.8 4.5 2.8 2.2 5.5 4.4 6.1 5 .6.5 2.5 2.1 4.3 3.5 1.8 1.4 3.8 3 4.4 3.5.7.6 5.5 4.6 10.8 8.8 9.1 7.3 9.9 7.7 14.6 7.7h4.9v-43l-.1-43 5.5-.1c3 0 9.9-.1 15.3 0 5.3 0 9.7-.2 9.7-.5 0-.7-5.7-9.1-8.8-12.9-6.6-8.2-12.8-13.7-18.9-16.7l-6.6-3.2-19.1-.4-19.1-.4v43.3zM101.7 315.9c-.2.3-.2 19-.2 41.6.1 22.5 0 41.5-.2 42.1-.3.7-2.2 1-4.6.9l-4.2-.3 3.5 3c1.9 1.6 11.5 9.2 21.2 16.9 16.1 12.7 18.1 13.9 21.8 13.9 2.5 0 4-.5 4.1-1.3.1-.6.2-19.9.3-42.7l.1-41.5 34.5-.2c19 0 34.7-.2 35-.2.4-.1.4-29.2.1-32.2-.1-.8-111.1-.8-111.4 0zM395.3 391.9c.4 4.7.3 5.1-1.7 5.2-1.1 0-3 .2-4.1.3-1.1.2-4.9.6-8.5 1.1-3.6.4-7.2.9-8 1-.8.1-4.6.6-8.3 1-3.7.3-7.6.8-8.5 1-.9.1-4.6.6-8.2 1-6.6.6-8.4.9-15.5 1.9-2.2.4-6.2.8-9 1.1-2.7.2-6.6.7-8.5 1-4.3.7-10.7 1.4-13.5 1.4-1.7.1-1.7.3-.5 1.5.8.7 10.9 7.1 22.4 14l20.9 12.8 5.6-.7c3.1-.3 7-.8 8.6-1 1.7-.3 7.1-.9 12-1.5 5-.6 10.4-1.3 12-1.5 1.7-.2 5.3-.7 8-1 2.8-.3 6.4-.8 8-1 1.7-.2 5-.7 7.5-.9 5.3-.6 21.4-2.6 25-3.1 1.4-.2 3.6-.4 5-.4 4.4-.2 5.2-1.4 4.5-6.3-.7-4.8.7-3.7-21.3-16.9-1.5-.9-7.6-4.6-13.5-8.3l-10.9-6.7.5 5z"/></svg>